NotoSerifTamil-Thin.ufo
<glyph name="exclam" format="2">
  <advance width="271"/>
  <unicode hex="0021"/>
  <outline>
    <contour>
      <point x="126" y="167" type="line"/>
      <point x="146" y="167" type="line"/>
      <point x="149" y="714" type="line"/>
      <point x="121" y="714" type="line"/>
    </contour>
    <contour>
      <point x="134" y="-5" type="curve" smooth="yes"/>
      <point x="150" y="-5"/>
      <point x="163" y="4"/>
      <point x="163" y="35" type="curve" smooth="yes"/>
      <point x="163" y="65"/>
      <point x="150" y="73"/>
      <point x="134" y="73" type="curve" smooth="yes"/>
      <point x="119" y="73"/>
      <point x="105" y="65"/>
      <point x="105" y="35" type="curve" smooth="yes"/>
      <point x="105" y="4"/>
      <point x="119" y="-5"/>
    </contour>
  </outline>
</glyph>
<glyph name="quotesingle" format="2">
  <advance width="132"/>
  <unicode hex="0027"/>
  <outline>
    <contour>
      <point x="57" y="529" type="line"/>
      <point x="77" y="529" type="line"/>
      <point x="87" y="714" type="line"/>
      <point x="45" y="714" type="line"/>
    </contour>
  </outline>
</glyph>
<glyph name="plus" format="2">
  <advance width="559"/>
  <unicode hex="002B"/>
  <outline>
    <contour>
      <point x="265" y="143" type="line"/>
      <point x="293" y="143" type="line"/>
      <point x="293" y="343" type="line"/>
      <point x="494" y="343" type="line"/>
      <point x="494" y="371" type="line"/>
      <point x="293" y="371" type="line"/>
      <point x="293" y="572" type="line"/>
      <point x="265" y="572" type="line"/>
      <point x="265" y="371" type="line"/>
      <point x="65" y="371" type="line"/>
      <point x="65" y="343" type="line"/>
      <point x="265" y="343" type="line"/>
    </contour>
  </outline>
</glyph>
<glyph name="two" format="2">
  <advance width="559"/>
  <unicode hex="0032"/>
  <outline>
    <contour>
      <point x="71" y="0" type="line"/>
      <point x="483" y="0" type="line"/>
      <point x="488" y="127" type="line"/>
      <point x="468" y="127" type="line"/>
      <point x="466" y="95" type="line" smooth="yes"/>
      <point x="463" y="39"/>
      <point x="457" y="25"/>
      <point x="405" y="25" type="curve" smooth="yes"/>
      <point x="109" y="25" type="line"/>
      <point x="352" y="291" type="line" smooth="yes"/>
      <point x="422" y="368"/>
      <point x="467" y="428"/>
      <point x="467" y="541" type="curve" smooth="yes"/>
      <point x="467" y="634"/>
      <point x="412" y="724"/>
      <point x="276" y="724" type="curve" smooth="yes"/>
      <point x="154" y="724"/>
      <point x="98" y="655"/>
      <point x="98" y="607" type="curve" smooth="yes"/>
      <point x="98" y="583"/>
      <point x="105" y="569"/>
      <point x="119" y="569" type="curve"/>
      <point x="119" y="654"/>
      <point x="178" y="699"/>
      <point x="276" y="699" type="curve" smooth="yes"/>
      <point x="398" y="699"/>
      <point x="439" y="612"/>
      <point x="439" y="539" type="curve" smooth="yes"/>
      <point x="439" y="435"/>
      <point x="396" y="381"/>
      <point x="307" y="282" type="curve" smooth="yes"/>
      <point x="71" y="22" type="line"/>
    </contour>
  </outline>
</glyph>
<glyph name="four" format="2">
  <advance width="559"/>
  <unicode hex="0034"/>
  <outline>
    <contour>
      <point x="267" y="0" type="line"/>
      <point x="498" y="0" type="line"/>
      <point x="498" y="20" type="line"/>
      <point x="460" y="20" type="line" smooth="yes"/>
      <point x="410" y="20"/>
      <point x="404" y="31"/>
      <point x="404" y="108" type="curve" smooth="yes"/>
      <point x="404" y="208" type="line"/>
      <point x="545" y="208" type="line"/>
      <point x="545" y="233" type="line"/>
      <point x="404" y="233" type="line"/>
      <point x="404" y="714" type="line"/>
      <point x="375" y="714" type="line"/>
      <point x="23" y="225" type="line"/>
      <point x="23" y="208" type="line"/>
      <point x="376" y="208" type="line"/>
      <point x="376" y="108" type="line" smooth="yes"/>
      <point x="376" y="31"/>
      <point x="370" y="20"/>
      <point x="320" y="20" type="curve" smooth="yes"/>
      <point x="267" y="20" type="line"/>
    </contour>
    <contour>
      <point x="59" y="233" type="line"/>
      <point x="261" y="512" type="line" smooth="yes"/>
      <point x="297" y="562"/>
      <point x="365" y="660"/>
      <point x="378" y="683" type="curve"/>
      <point x="377" y="621"/>
      <point x="376" y="507"/>
      <point x="376" y="449" type="curve" smooth="yes"/>
      <point x="376" y="233" type="line"/>
    </contour>
  </outline>
</glyph>
<glyph name="five" format="2">
  <advance width="559"/>
  <unicode hex="0035"/>
  <outline>
    <contour>
      <point x="249" y="-10" type="curve" smooth="yes"/>
      <point x="389" y="-10"/>
      <point x="460" y="91"/>
      <point x="460" y="216" type="curve" smooth="yes"/>
      <point x="460" y="353"/>
      <point x="369" y="423"/>
      <point x="256" y="423" type="curve" smooth="yes"/>
      <point x="211" y="423"/>
      <point x="169" y="412"/>
      <point x="138" y="390" type="curve"/>
      <point x="166" y="684" type="line"/>
      <point x="354" y="684" type="line" smooth="yes"/>
      <point x="409" y="684"/>
      <point x="417" y="682"/>
      <point x="419" y="629" type="curve" smooth="yes"/>
      <point x="420" y="601" type="line"/>
      <point x="440" y="601" type="line"/>
      <point x="437" y="712" type="line"/>
      <point x="143" y="712" type="line"/>
      <point x="109" y="355" type="line"/>
      <point x="122" y="351" type="line"/>
      <point x="158" y="386"/>
      <point x="213" y="398"/>
      <point x="262" y="398" type="curve" smooth="yes"/>
      <point x="357" y="398"/>
      <point x="432" y="332"/>
      <point x="432" y="216" type="curve" smooth="yes"/>
      <point x="432" y="99"/>
      <point x="368" y="15"/>
      <point x="255" y="15" type="curve" smooth="yes"/>
      <point x="170" y="15"/>
      <point x="101" y="45"/>
      <point x="101" y="126" type="curve"/>
      <point x="90" y="126"/>
      <point x="80" y="119"/>
      <point x="80" y="93" type="curve" smooth="yes"/>
      <point x="80" y="39"/>
      <point x="144" y="-10"/>
    </contour>
  </outline>
</glyph>
<glyph name="nine" format="2">
  <advance width="559"/>
  <unicode hex="0039"/>
  <outline>
    <contour>
      <point x="227" y="-11" type="curve" smooth="yes"/>
      <point x="407" y="-11"/>
      <point x="478" y="124"/>
      <point x="478" y="388" type="curve" smooth="yes"/>
      <point x="478" y="613"/>
      <point x="400" y="724"/>
      <point x="257" y="724" type="curve" smooth="yes"/>
      <point x="132" y="724"/>
      <point x="71" y="627"/>
      <point x="71" y="490" type="curve" smooth="yes"/>
      <point x="71" y="375"/>
      <point x="133" y="287"/>
      <point x="270" y="287" type="curve" smooth="yes"/>
      <point x="353" y="287"/>
      <point x="426" y="336"/>
      <point x="450" y="358" type="curve"/>
      <point x="450" y="133"/>
      <point x="376" y="14"/>
      <point x="235" y="14" type="curve" smooth="yes"/>
      <point x="173" y="14"/>
      <point x="135" y="33"/>
      <point x="112" y="80" type="curve"/>
      <point x="106" y="77"/>
      <point x="103" y="70"/>
      <point x="103" y="60" type="curve" smooth="yes"/>
      <point x="103" y="29"/>
      <point x="141" y="-11"/>
    </contour>
    <contour>
      <point x="266" y="312" type="curve" smooth="yes"/>
      <point x="157" y="312"/>
      <point x="99" y="385"/>
      <point x="99" y="488" type="curve" smooth="yes"/>
      <point x="99" y="605"/>
      <point x="144" y="699"/>
      <point x="261" y="699" type="curve" smooth="yes"/>
      <point x="385" y="699"/>
      <point x="450" y="589"/>
      <point x="450" y="389" type="curve"/>
      <point x="426" y="371"/>
      <point x="365" y="312"/>
    </contour>
  </outline>
</glyph>
<glyph name="less" format="2">
  <advance width="559"/>
  <unicode hex="003C"/>
  <outline>
    <contour>
      <point x="494" y="118" type="line"/>
      <point x="494" y="149" type="line"/>
      <point x="95" y="357" type="line"/>
      <point x="494" y="567" type="line"/>
      <point x="494" y="598" type="line"/>
      <point x="65" y="371" type="line"/>
      <point x="65" y="344" type="line"/>
    </contour>
  </outline>
</glyph>
<glyph name="equal" format="2">
  <advance width="559"/>
  <unicode hex="003D"/>
  <outline>
    <contour>
      <point x="67" y="451" type="line"/>
      <point x="490" y="451" type="line"/>
      <point x="490" y="479" type="line"/>
      <point x="67" y="479" type="line"/>
    </contour>
    <contour>
      <point x="67" y="235" type="line"/>
      <point x="490" y="235" type="line"/>
      <point x="490" y="263" type="line"/>
      <point x="67" y="263" type="line"/>
    </contour>
  </outline>
</glyph>
<glyph name="bar" format="2">
  <advance width="559"/>
  <unicode hex="007C"/>
  <outline>
    <contour>
      <point x="265" y="-240" type="line"/>
      <point x="293" y="-240" type="line"/>
      <point x="293" y="760" type="line"/>
      <point x="265" y="760" type="line"/>
    </contour>
  </outline>
</glyph>
<glyph name="braceright" format="2">
  <advance width="410"/>
  <unicode hex="007D"/>
  <outline>
    <contour>
      <point x="76" y="-132" type="line"/>
      <point x="106" y="-132" type="line" smooth="yes"/>
      <point x="176" y="-132"/>
      <point x="216" y="-78"/>
      <point x="216" y="8" type="curve" smooth="yes"/>
      <point x="216" y="184" type="line" smooth="yes"/>
      <point x="216" y="274"/>
      <point x="268" y="303"/>
      <point x="336" y="306" type="curve"/>
      <point x="336" y="324" type="line"/>
      <point x="268" y="326"/>
      <point x="216" y="356"/>
      <point x="216" y="445" type="curve" smooth="yes"/>
      <point x="216" y="621" type="line" smooth="yes"/>
      <point x="216" y="710"/>
      <point x="176" y="760"/>
      <point x="106" y="760" type="curve" smooth="yes"/>
      <point x="76" y="760" type="line"/>
      <point x="76" y="735" type="line"/>
      <point x="101" y="735" type="line" smooth="yes"/>
      <point x="163" y="735"/>
      <point x="188" y="697"/>
      <point x="188" y="620" type="curve" smooth="yes"/>
      <point x="188" y="443" type="line" smooth="yes"/>
      <point x="188" y="373"/>
      <point x="224" y="324"/>
      <point x="282" y="317" type="curve"/>
      <point x="282" y="315" type="line"/>
      <point x="223" y="307"/>
      <point x="188" y="259"/>
      <point x="188" y="187" type="curve" smooth="yes"/>
      <point x="188" y="6" type="line" smooth="yes"/>
      <point x="188" y="-68"/>
      <point x="163" y="-107"/>
      <point x="106" y="-107" type="curve" smooth="yes"/>
      <point x="76" y="-107" type="line"/>
    </contour>
  </outline>
</glyph>
<glyph name="i-tamil" format="2">
  <advance width="974"/>
  <unicode hex="0B87"/>
  <note>
uni0B87
</note>
  <anchor x="482" y="0" name="bottom"/>
  <anchor x="480" y="-248" name="nukta"/>
  <anchor x="484" y="792" name="top"/>
  <anchor x="488" y="542" name="vedic"/>
  <outline>
    <contour>
      <point x="228" y="-278" type="curve" smooth="yes"/>
      <point x="485" y="-278"/>
      <point x="724" y="3"/>
      <point x="724" y="267" type="curve" smooth="yes"/>
      <point x="724" y="445"/>
      <point x="632" y="551"/>
      <point x="472" y="551" type="curve" smooth="yes"/>
      <point x="340" y="551"/>
      <point x="273" y="470"/>
      <point x="273" y="394" type="curve" smooth="yes"/>
      <point x="273" y="318"/>
      <point x="319" y="266"/>
      <point x="397" y="266" type="curve" smooth="yes"/>
      <point x="478" y="266"/>
      <point x="524" y="315"/>
      <point x="524" y="391" type="curve" smooth="yes"/>
      <point x="524" y="456"/>
      <point x="482" y="507"/>
      <point x="432" y="535" type="curve"/>
      <point x="401" y="530" type="line"/>
      <point x="464" y="493"/>
      <point x="497" y="447"/>
      <point x="497" y="391" type="curve" smooth="yes"/>
      <point x="497" y="333"/>
      <point x="465" y="291"/>
      <point x="396" y="291" type="curve" smooth="yes"/>
      <point x="335" y="291"/>
      <point x="301" y="331"/>
      <point x="301" y="392" type="curve" smooth="yes"/>
      <point x="301" y="462"/>
      <point x="357" y="527"/>
      <point x="468" y="527" type="curve" smooth="yes"/>
      <point x="610" y="527"/>
      <point x="695" y="432"/>
      <point x="695" y="268" type="curve" smooth="yes"/>
      <point x="695" y="24"/>
      <point x="471" y="-252"/>
      <point x="233" y="-252" type="curve" smooth="yes"/>
      <point x="141" y="-252"/>
      <point x="93" y="-214"/>
      <point x="93" y="-142" type="curve" smooth="yes"/>
      <point x="93" y="-16"/>
      <point x="283" y="80"/>
      <point x="479" y="80" type="curve" smooth="yes"/>
      <point x="667" y="80"/>
      <point x="863" y="-19"/>
      <point x="863" y="-142" type="curve" smooth="yes"/>
      <point x="863" y="-217"/>
      <point x="811" y="-252"/>
      <point x="727" y="-252" type="curve" smooth="yes"/>
      <point x="502" y="-252"/>
      <point x="112" y="73"/>
      <point x="112" y="389" type="curve" smooth="yes"/>
      <point x="112" y="589"/>
      <point x="223" y="761"/>
      <point x="482" y="761" type="curve" smooth="yes"/>
      <point x="729" y="761"/>
      <point x="875" y="584"/>
      <point x="875" y="325" type="curve" smooth="yes"/>
      <point x="875" y="108" type="line"/>
      <point x="900" y="108" type="line"/>
      <point x="900" y="325" type="line" smooth="yes"/>
      <point x="900" y="609"/>
      <point x="750" y="792"/>
      <point x="484" y="792" type="curve" smooth="yes"/>
      <point x="207" y="792"/>
      <point x="84" y="605"/>
      <point x="84" y="394" type="curve" smooth="yes"/>
      <point x="84" y="69"/>
      <point x="486" y="-278"/>
      <point x="733" y="-278" type="curve" smooth="yes"/>
      <point x="824" y="-278"/>
      <point x="893" y="-237"/>
      <point x="893" y="-144" type="curve" smooth="yes"/>
      <point x="893" y="-2"/>
      <point x="690" y="105"/>
      <point x="479" y="105" type="curve" smooth="yes"/>
      <point x="263" y="105"/>
      <point x="63" y="-3"/>
      <point x="63" y="-142" type="curve" smooth="yes"/>
      <point x="63" y="-229"/>
      <point x="127" y="-278"/>
    </contour>
  </outline>
</glyph>
<glyph name="ii-tamil" format="2">
  <advance width="753"/>
  <unicode hex="0B88"/>
  <note>
uni0B88
</note>
  <anchor x="404" y="0" name="bottom"/>
  <anchor x="405" y="0" name="nukta"/>
  <anchor x="407" y="542" name="top"/>
  <anchor x="407" y="542" name="vedic"/>
  <outline>
    <contour>
      <point x="127" y="0" type="line"/>
      <point x="153" y="0" type="line"/>
      <point x="153" y="519" type="line"/>
      <point x="469" y="519" type="line"/>
      <point x="469" y="0" type="line"/>
      <point x="498" y="0" type="line"/>
      <point x="498" y="519" type="line"/>
      <point x="705" y="519" type="line"/>
      <point x="705" y="542" type="line"/>
      <point x="127" y="542" type="line"/>
    </contour>
    <contour>
      <point x="310" y="227" type="curve" smooth="yes"/>
      <point x="329" y="227"/>
      <point x="344" y="242"/>
      <point x="344" y="261" type="curve" smooth="yes"/>
      <point x="344" y="279"/>
      <point x="329" y="295"/>
      <point x="310" y="295" type="curve" smooth="yes"/>
      <point x="290" y="295"/>
      <point x="274" y="279"/>
      <point x="274" y="261" type="curve" smooth="yes"/>
      <point x="274" y="242"/>
      <point x="290" y="227"/>
    </contour>
    <contour>
      <point x="653" y="227" type="curve" smooth="yes"/>
      <point x="673" y="227"/>
      <point x="688" y="242"/>
      <point x="688" y="261" type="curve" smooth="yes"/>
      <point x="688" y="279"/>
      <point x="673" y="295"/>
      <point x="653" y="295" type="curve" smooth="yes"/>
      <point x="633" y="295"/>
      <point x="618" y="279"/>
      <point x="618" y="261" type="curve" smooth="yes"/>
      <point x="618" y="242"/>
      <point x="633" y="227"/>
    </contour>
  </outline>
</glyph>
<glyph name="ka-tamil" format="2">
  <advance width="784"/>
  <unicode hex="0B95"/>
  <note>
uni0B95
</note>
  <anchor x="417" y="0" name="bottom"/>
  <anchor x="525" y="542" name="imatra"/>
  <anchor x="422" y="0" name="nukta"/>
  <anchor x="427" y="542" name="top"/>
  <anchor x="431" y="542" name="vedic"/>
  <outline>
    <contour>
      <point x="249" y="-4" type="curve" smooth="yes"/>
      <point x="375" y="-4"/>
      <point x="445" y="73"/>
      <point x="445" y="192" type="curve" smooth="yes"/>
      <point x="445" y="275" type="line"/>
      <point x="515" y="275" type="line" smooth="yes"/>
      <point x="641" y="275"/>
      <point x="690" y="224"/>
      <point x="690" y="148" type="curve" smooth="yes"/>
      <point x="690" y="89"/>
      <point x="652" y="21"/>
      <point x="559" y="21" type="curve" smooth="yes"/>
      <point x="510" y="21" type="line"/>
      <point x="510" y="-2" type="line"/>
      <point x="565" y="-2" type="line" smooth="yes"/>
      <point x="651" y="-2"/>
      <point x="718" y="49"/>
      <point x="718" y="147" type="curve" smooth="yes"/>
      <point x="718" y="246"/>
      <point x="659" y="299"/>
      <point x="514" y="299" type="curve" smooth="yes"/>
      <point x="445" y="299" type="line"/>
      <point x="445" y="519" type="line"/>
      <point x="625" y="519" type="line"/>
      <point x="625" y="542" type="line"/>
      <point x="189" y="542" type="line"/>
      <point x="189" y="284" type="line"/>
      <point x="215" y="284" type="line"/>
      <point x="215" y="519" type="line"/>
      <point x="417" y="519" type="line"/>
      <point x="417" y="299" type="line"/>
      <point x="247" y="299" type="line" smooth="yes"/>
      <point x="139" y="299"/>
      <point x="71" y="230"/>
      <point x="71" y="146" type="curve" smooth="yes"/>
      <point x="71" y="62"/>
      <point x="137" y="-4"/>
    </contour>
    <contour>
      <point x="251" y="21" type="curve" smooth="yes"/>
      <point x="160" y="21"/>
      <point x="104" y="75"/>
      <point x="104" y="148" type="curve" smooth="yes"/>
      <point x="104" y="214"/>
      <point x="152" y="275"/>
      <point x="250" y="275" type="curve" smooth="yes"/>
      <point x="417" y="275" type="line"/>
      <point x="417" y="189" type="line" smooth="yes"/>
      <point x="417" y="92"/>
      <point x="352" y="21"/>
    </contour>
  </outline>
</glyph>
<glyph name="nga-tamil" format="2">
  <advance width="1026"/>
  <unicode hex="0B99"/>
  <note>
uni0B99
</note>
  <anchor x="518" y="0" name="bottom"/>
  <anchor x="580" y="542" name="imatra"/>
  <anchor x="518" y="0" name="nukta"/>
  <anchor x="520" y="542" name="top"/>
  <anchor x="515" y="542" name="vedic"/>
  <outline>
    <contour>
      <point x="127" y="0" type="line"/>
      <point x="153" y="0" type="line"/>
      <point x="153" y="519" type="line"/>
      <point x="386" y="519" type="line"/>
      <point x="386" y="188" type="line"/>
      <point x="415" y="188" type="line"/>
      <point x="415" y="203" type="line" smooth="yes"/>
      <point x="415" y="254"/>
      <point x="448" y="332"/>
      <point x="546" y="332" type="curve" smooth="yes"/>
      <point x="617" y="332"/>
      <point x="662" y="289"/>
      <point x="662" y="208" type="curve" smooth="yes"/>
      <point x="662" y="73"/>
      <point x="519" y="23"/>
      <point x="458" y="23" type="curve" smooth="yes"/>
      <point x="386" y="23" type="line"/>
      <point x="386" y="0" type="line"/>
      <point x="899" y="0" type="line"/>
      <point x="899" y="542" type="line"/>
      <point x="870" y="542" type="line"/>
      <point x="870" y="23" type="line"/>
      <point x="550" y="23" type="line"/>
      <point x="629" y="53"/>
      <point x="692" y="108"/>
      <point x="692" y="214" type="curve" smooth="yes"/>
      <point x="692" y="306"/>
      <point x="631" y="355"/>
      <point x="551" y="355" type="curve" smooth="yes"/>
      <point x="471" y="355"/>
      <point x="434" y="316"/>
      <point x="415" y="281" type="curve"/>
      <point x="415" y="519" type="line"/>
      <point x="622" y="519" type="line"/>
      <point x="622" y="542" type="line"/>
      <point x="127" y="542" type="line"/>
    </contour>
  </outline>
</glyph>
<glyph name="ca-tamil" format="2">
  <advance width="676"/>
  <unicode hex="0B9A"/>
  <note>
uni0B9A
</note>
  <anchor x="359" y="0" name="bottom"/>
  <anchor x="556" y="542" name="imatra"/>
  <anchor x="361" y="0" name="nukta"/>
  <anchor x="405" y="542" name="top"/>
  <anchor x="367" y="542" name="vedic"/>
  <outline>
    <contour>
      <point x="249" y="-4" type="curve" smooth="yes"/>
      <point x="375" y="-4"/>
      <point x="445" y="73"/>
      <point x="445" y="192" type="curve" smooth="yes"/>
      <point x="445" y="275" type="line"/>
      <point x="625" y="275" type="line"/>
      <point x="625" y="299" type="line"/>
      <point x="445" y="299" type="line"/>
      <point x="445" y="519" type="line"/>
      <point x="625" y="519" type="line"/>
      <point x="625" y="542" type="line"/>
      <point x="189" y="542" type="line"/>
      <point x="189" y="282" type="line"/>
      <point x="215" y="282" type="line"/>
      <point x="215" y="519" type="line"/>
      <point x="417" y="519" type="line"/>
      <point x="417" y="299" type="line"/>
      <point x="247" y="299" type="line" smooth="yes"/>
      <point x="139" y="299"/>
      <point x="71" y="230"/>
      <point x="71" y="146" type="curve" smooth="yes"/>
      <point x="71" y="62"/>
      <point x="137" y="-4"/>
    </contour>
    <contour>
      <point x="251" y="21" type="curve" smooth="yes"/>
      <point x="160" y="21"/>
      <point x="104" y="75"/>
      <point x="104" y="148" type="curve" smooth="yes"/>
      <point x="104" y="214"/>
      <point x="152" y="275"/>
      <point x="250" y="275" type="curve" smooth="yes"/>
      <point x="417" y="275" type="line"/>
      <point x="417" y="189" type="line" smooth="yes"/>
      <point x="417" y="92"/>
      <point x="352" y="21"/>
    </contour>
  </outline>
</glyph>
<glyph name="nya-tamil" format="2">
  <advance width="1215"/>
  <unicode hex="0B9E"/>
  <note>
uni0B9E
</note>
  <anchor x="647" y="0" name="bottom"/>
  <anchor x="979" y="542" name="imatra"/>
  <anchor x="652" y="-315" name="nukta"/>
  <anchor x="679" y="542" name="top"/>
  <anchor x="611" y="542" name="vedic"/>
  <outline>
    <contour>
      <point x="652" y="-315" type="curve" smooth="yes"/>
      <point x="938" y="-315"/>
      <point x="1154" y="-155"/>
      <point x="1154" y="99" type="curve" smooth="yes"/>
      <point x="1154" y="254"/>
      <point x="1085" y="328"/>
      <point x="988" y="328" type="curve" smooth="yes"/>
      <point x="894" y="328"/>
      <point x="841" y="264"/>
      <point x="841" y="163" type="curve" smooth="yes"/>
      <point x="841" y="149" type="line"/>
      <point x="859" y="149" type="line"/>
      <point x="859" y="163" type="line" smooth="yes"/>
      <point x="859" y="245"/>
      <point x="899" y="304"/>
      <point x="986" y="304" type="curve" smooth="yes"/>
      <point x="1064" y="304"/>
      <point x="1125" y="244"/>
      <point x="1125" y="100" type="curve" smooth="yes"/>
      <point x="1125" y="-137"/>
      <point x="914" y="-290"/>
      <point x="653" y="-290" type="curve" smooth="yes"/>
      <point x="352" y="-290"/>
      <point x="97" y="-120"/>
      <point x="97" y="207" type="curve" smooth="yes"/>
      <point x="97" y="377"/>
      <point x="143" y="499"/>
      <point x="284" y="631" type="curve"/>
      <point x="265" y="654" type="line"/>
      <point x="120" y="517"/>
      <point x="68" y="392"/>
      <point x="68" y="203" type="curve" smooth="yes"/>
      <point x="68" y="-129"/>
      <point x="329" y="-315"/>
    </contour>
    <component base="e-tamil" xOffset="210"/>
  </outline>
</glyph>
<glyph name="ya-tamil" format="2">
  <advance width="939"/>
  <unicode hex="0BAF"/>
  <note>
uni0BAF
</note>
  <anchor x="485" y="0" name="bottom"/>
  <anchor x="802" y="542" name="imatra"/>
  <anchor x="485" y="0" name="nukta"/>
  <anchor x="485" y="542" name="top"/>
  <anchor x="469" y="542" name="vedic"/>
  <outline>
    <contour>
      <point x="258" y="-5" type="curve" smooth="yes"/>
      <point x="318" y="-5"/>
      <point x="359" y="29"/>
      <point x="382" y="71" type="curve"/>
      <point x="382" y="0" type="line"/>
      <point x="812" y="0" type="line"/>
      <point x="812" y="542" type="line"/>
      <point x="782" y="542" type="line"/>
      <point x="782" y="23" type="line"/>
      <point x="409" y="23" type="line"/>
      <point x="409" y="542" type="line"/>
      <point x="380" y="542" type="line"/>
      <point x="380" y="141" type="line" smooth="yes"/>
      <point x="380" y="80"/>
      <point x="328" y="21"/>
      <point x="259" y="21" type="curve" smooth="yes"/>
      <point x="194" y="21"/>
      <point x="156" y="63"/>
      <point x="156" y="135" type="curve" smooth="yes"/>
      <point x="156" y="542" type="line"/>
      <point x="127" y="542" type="line"/>
      <point x="127" y="140" type="line" smooth="yes"/>
      <point x="127" y="46"/>
      <point x="182" y="-5"/>
    </contour>
  </outline>
</glyph>
<glyph name="ra-tamil" format="2">
  <advance width="690"/>
  <unicode hex="0BB0"/>
  <note>
uni0BB0
</note>
  <anchor x="370" y="0" name="bottom"/>
  <anchor x="598" y="542" name="imatra"/>
  <anchor x="367" y="-165" name="nukta"/>
  <anchor x="386" y="542" name="top"/>
  <anchor x="390" y="542" name="vedic"/>
  <outline>
    <contour>
      <point x="260" y="-208" type="line"/>
      <point x="456" y="-3" type="line"/>
      <point x="456" y="519" type="line"/>
      <point x="663" y="519" type="line"/>
      <point x="663" y="542" type="line"/>
      <point x="127" y="542" type="line"/>
      <point x="127" y="0" type="line"/>
      <point x="153" y="0" type="line"/>
      <point x="153" y="519" type="line"/>
      <point x="427" y="519" type="line"/>
      <point x="427" y="5" type="line"/>
      <point x="242" y="-189" type="line"/>
    </contour>
  </outline>
</glyph>
<glyph name="llla-tamil" format="2">
  <advance width="899"/>
  <unicode hex="0BB4"/>
  <note>
uni0BB4
</note>
  <anchor x="467" y="0" name="bottom"/>
  <anchor x="467" y="-286" name="nukta"/>
  <anchor x="498" y="542" name="top"/>
  <anchor x="479" y="542" name="vedic"/>
  <anchor x="821" y="542" name="imatra"/>
  <outline>
    <contour>
      <point x="307" y="-330" type="curve" smooth="yes"/>
      <point x="460" y="-330"/>
      <point x="514" y="-151"/>
      <point x="683" y="-151" type="curve" smooth="yes"/>
      <point x="746" y="-151" type="line"/>
      <point x="746" y="-128" type="line"/>
      <point x="671" y="-128" type="line" smooth="yes"/>
      <point x="568" y="-128"/>
      <point x="490" y="-65"/>
      <point x="490" y="5" type="curve" smooth="yes"/>
      <point x="490" y="47" type="line"/>
      <point x="463" y="47" type="line"/>
      <point x="463" y="5" type="line" smooth="yes"/>
      <point x="463" y="-67"/>
      <point x="535" y="-129"/>
      <point x="611" y="-140" type="curve"/>
      <point x="611" y="-145" type="line"/>
      <point x="485" y="-167"/>
      <point x="432" y="-303"/>
      <point x="305" y="-303" type="curve" smooth="yes"/>
      <point x="234" y="-303"/>
      <point x="197" y="-259"/>
      <point x="197" y="-205" type="curve" smooth="yes"/>
      <point x="197" y="-152"/>
      <point x="233" y="-107"/>
      <point x="292" y="-107" type="curve" smooth="yes"/>
      <point x="331" y="-107"/>
      <point x="357" y="-121"/>
      <point x="390" y="-150" type="curve"/>
      <point x="406" y="-132" type="line"/>
      <point x="365" y="-93"/>
      <point x="329" y="-83"/>
      <point x="291" y="-83" type="curve" smooth="yes"/>
      <point x="220" y="-83"/>
      <point x="169" y="-141"/>
      <point x="169" y="-204" type="curve" smooth="yes"/>
      <point x="169" y="-277"/>
      <point x="219" y="-330"/>
    </contour>
    <component base="ma-tamil"/>
  </outline>
</glyph>
<glyph name="om-tamil" format="2">
  <advance width="974"/>
  <unicode hex="0BD0"/>
  <note>
uni0BD0
</note>
  <outline>
    <contour>
      <point x="305" y="-369" type="curve" smooth="yes"/>
      <point x="511" y="-369"/>
      <point x="550" y="-132"/>
      <point x="751" y="-132" type="curve" smooth="yes"/>
      <point x="771" y="-132" type="line"/>
      <point x="771" y="-108" type="line"/>
      <point x="740" y="-108" type="line" smooth="yes"/>
      <point x="581" y="-108"/>
      <point x="449" y="58"/>
      <point x="609" y="236" type="curve"/>
      <point x="615" y="232" type="line"/>
      <point x="568" y="148"/>
      <point x="592" y="-5"/>
      <point x="735" y="-5" type="curve" smooth="yes"/>
      <point x="831" y="-5"/>
      <point x="908" y="66"/>
      <point x="908" y="203" type="curve" smooth="yes"/>
      <point x="908" y="424"/>
      <point x="694" y="551"/>
      <point x="465" y="551" type="curve" smooth="yes"/>
      <point x="229" y="551"/>
      <point x="66" y="417"/>
      <point x="66" y="238" type="curve" smooth="yes"/>
      <point x="66" y="103"/>
      <point x="148" y="4"/>
      <point x="259" y="4" type="curve" smooth="yes"/>
      <point x="350" y="4"/>
      <point x="413" y="62"/>
      <point x="413" y="157" type="curve" smooth="yes"/>
      <point x="413" y="243"/>
      <point x="349" y="292"/>
      <point x="276" y="292" type="curve" smooth="yes"/>
      <point x="178" y="292"/>
      <point x="120" y="219"/>
      <point x="96" y="143" type="curve"/>
      <point x="108" y="118" type="line"/>
      <point x="136" y="199"/>
      <point x="187" y="267"/>
      <point x="270" y="267" type="curve" smooth="yes"/>
      <point x="339" y="267"/>
      <point x="385" y="226"/>
      <point x="385" y="153" type="curve" smooth="yes"/>
      <point x="385" y="73"/>
      <point x="331" y="30"/>
      <point x="257" y="30" type="curve" smooth="yes"/>
      <point x="165" y="30"/>
      <point x="94" y="111"/>
      <point x="94" y="236" type="curve" smooth="yes"/>
      <point x="94" y="406"/>
      <point x="251" y="527"/>
      <point x="461" y="527" type="curve" smooth="yes"/>
      <point x="671" y="527"/>
      <point x="878" y="406"/>
      <point x="878" y="208" type="curve" smooth="yes"/>
      <point x="878" y="83"/>
      <point x="817" y="21"/>
      <point x="731" y="21" type="curve" smooth="yes"/>
      <point x="618" y="21"/>
      <point x="586" y="159"/>
      <point x="651" y="256" type="curve"/>
      <point x="618" y="281" type="line"/>
      <point x="415" y="81"/>
      <point x="537" y="-90"/>
      <point x="673" y="-121" type="curve"/>
      <point x="673" y="-125" type="line"/>
      <point x="522" y="-159"/>
      <point x="472" y="-342"/>
      <point x="303" y="-342" type="curve" smooth="yes"/>
      <point x="199" y="-342"/>
      <point x="139" y="-271"/>
      <point x="160" y="-185" type="curve"/>
      <point x="133" y="-180" type="line"/>
      <point x="110" y="-281"/>
      <point x="182" y="-369"/>
    </contour>
    <contour>
      <point x="225" y="-251" type="line"/>
      <point x="249" y="-251" type="line"/>
      <point x="249" y="-108" type="line"/>
      <point x="225" y="-108" type="line"/>
    </contour>
    <contour>
      <point x="233" y="-251" type="line"/>
      <point x="416" y="-251" type="line"/>
      <point x="416" y="-229" type="line"/>
      <point x="233" y="-229" type="line"/>
    </contour>
    <contour>
      <point x="313" y="-251" type="line"/>
      <point x="336" y="-251" type="line"/>
      <point x="336" y="-171" type="line" smooth="yes"/>
      <point x="336" y="-147"/>
      <point x="349" y="-130"/>
      <point x="372" y="-130" type="curve" smooth="yes"/>
      <point x="394" y="-130"/>
      <point x="406" y="-147"/>
      <point x="406" y="-171" type="curve" smooth="yes"/>
      <point x="406" y="-251" type="line"/>
      <point x="430" y="-251" type="line"/>
      <point x="430" y="-174" type="line" smooth="yes"/>
      <point x="430" y="-129"/>
      <point x="406" y="-105"/>
      <point x="372" y="-105" type="curve" smooth="yes"/>
      <point x="337" y="-105"/>
      <point x="313" y="-129"/>
      <point x="313" y="-174" type="curve" smooth="yes"/>
    </contour>
    <contour>
      <point x="323" y="-73" type="curve" smooth="yes"/>
      <point x="336" y="-73"/>
      <point x="346" y="-62"/>
      <point x="346" y="-50" type="curve" smooth="yes"/>
      <point x="346" y="-39"/>
      <point x="336" y="-28"/>
      <point x="323" y="-28" type="curve" smooth="yes"/>
      <point x="310" y="-28"/>
      <point x="299" y="-39"/>
      <point x="299" y="-50" type="curve" smooth="yes"/>
      <point x="299" y="-62"/>
      <point x="310" y="-73"/>
    </contour>
  </outline>
</glyph>
<glyph name="zero-tamil" format="2">
  <advance width="583"/>
  <unicode hex="0BE6"/>
  <note>
uni0BE6
</note>
  <outline>
    <contour>
      <point x="290" y="-4" type="curve" smooth="yes"/>
      <point x="427" y="-4"/>
      <point x="518" y="113"/>
      <point x="518" y="273" type="curve" smooth="yes"/>
      <point x="518" y="428"/>
      <point x="438" y="550"/>
      <point x="293" y="550" type="curve" smooth="yes"/>
      <point x="139" y="550"/>
      <point x="65" y="420"/>
      <point x="65" y="273" type="curve" smooth="yes"/>
      <point x="65" y="119"/>
      <point x="139" y="-4"/>
    </contour>
    <contour>
      <point x="285" y="21" type="curve" smooth="yes"/>
      <point x="158" y="21"/>
      <point x="92" y="135"/>
      <point x="92" y="273" type="curve" smooth="yes"/>
      <point x="92" y="407"/>
      <point x="160" y="526"/>
      <point x="290" y="526" type="curve" smooth="yes"/>
      <point x="421" y="526"/>
      <point x="490" y="411"/>
      <point x="490" y="273" type="curve" smooth="yes"/>
      <point x="490" y="127"/>
      <point x="410" y="21"/>
    </contour>
  </outline>
</glyph>
<glyph name="one-tamil" format="2">
  <advance width="784"/>
  <unicode hex="0BE7"/>
  <note>
uni0BE7
</note>
  <outline>
    <contour>
      <point x="249" y="-4" type="curve" smooth="yes"/>
      <point x="366" y="-4"/>
      <point x="445" y="73"/>
      <point x="445" y="192" type="curve" smooth="yes"/>
      <point x="445" y="275" type="line"/>
      <point x="515" y="275" type="line" smooth="yes"/>
      <point x="641" y="275"/>
      <point x="690" y="224"/>
      <point x="690" y="149" type="curve" smooth="yes"/>
      <point x="690" y="70"/>
      <point x="635" y="21"/>
      <point x="548" y="21" type="curve" smooth="yes"/>
      <point x="487" y="21"/>
      <point x="448" y="51"/>
      <point x="411" y="91" type="curve"/>
      <point x="394" y="70" type="line"/>
      <point x="433" y="30"/>
      <point x="478" y="-4"/>
      <point x="555" y="-4" type="curve" smooth="yes"/>
      <point x="646" y="-4"/>
      <point x="718" y="51"/>
      <point x="718" y="148" type="curve" smooth="yes"/>
      <point x="718" y="245"/>
      <point x="659" y="299"/>
      <point x="514" y="299" type="curve" smooth="yes"/>
      <point x="445" y="299" type="line"/>
      <point x="445" y="519" type="line"/>
      <point x="625" y="519" type="line"/>
      <point x="625" y="542" type="line"/>
      <point x="189" y="542" type="line"/>
      <point x="189" y="284" type="line"/>
      <point x="215" y="284" type="line"/>
      <point x="215" y="519" type="line"/>
      <point x="417" y="519" type="line"/>
      <point x="417" y="299" type="line"/>
      <point x="247" y="299" type="line" smooth="yes"/>
      <point x="139" y="299"/>
      <point x="71" y="230"/>
      <point x="71" y="146" type="curve" smooth="yes"/>
      <point x="71" y="62"/>
      <point x="137" y="-4"/>
    </contour>
    <contour>
      <point x="251" y="21" type="curve" smooth="yes"/>
      <point x="160" y="21"/>
      <point x="104" y="75"/>
      <point x="104" y="148" type="curve" smooth="yes"/>
      <point x="104" y="214"/>
      <point x="152" y="275"/>
      <point x="250" y="275" type="curve" smooth="yes"/>
      <point x="417" y="275" type="line"/>
      <point x="417" y="189" type="line" smooth="yes"/>
      <point x="417" y="92"/>
      <point x="352" y="21"/>
    </contour>
  </outline>
</glyph>
<glyph name="ten-tamil" format="2">
  <advance width="812"/>
  <unicode hex="0BF0"/>
  <note>
uni0BF0
</note>
  <outline>
    <contour>
      <point x="494" y="-5" type="curve" smooth="yes"/>
      <point x="623" y="-5"/>
      <point x="727" y="115"/>
      <point x="727" y="311" type="curve" smooth="yes"/>
      <point x="727" y="561"/>
      <point x="592" y="743"/>
      <point x="322" y="778" type="curve"/>
      <point x="318" y="750" type="line"/>
      <point x="571" y="724"/>
      <point x="699" y="538"/>
      <point x="699" y="318" type="curve" smooth="yes"/>
      <point x="699" y="126"/>
      <point x="601" y="21"/>
      <point x="495" y="21" type="curve" smooth="yes"/>
      <point x="412" y="21"/>
      <point x="385" y="70"/>
      <point x="385" y="144" type="curve" smooth="yes"/>
      <point x="385" y="542" type="line"/>
      <point x="355" y="542" type="line"/>
      <point x="355" y="153" type="line" smooth="yes"/>
      <point x="355" y="57"/>
      <point x="396" y="-5"/>
    </contour>
    <contour>
      <point x="233" y="-5" type="curve" smooth="yes"/>
      <point x="308" y="-5"/>
      <point x="372" y="55"/>
      <point x="372" y="133" type="curve" smooth="yes"/>
      <point x="372" y="171" type="line"/>
      <point x="355" y="171" type="line"/>
      <point x="355" y="143" type="line" smooth="yes"/>
      <point x="355" y="81"/>
      <point x="303" y="21"/>
      <point x="234" y="21" type="curve" smooth="yes"/>
      <point x="169" y="21"/>
      <point x="132" y="63"/>
      <point x="132" y="135" type="curve" smooth="yes"/>
      <point x="132" y="542" type="line"/>
      <point x="103" y="542" type="line"/>
      <point x="103" y="140" type="line" smooth="yes"/>
      <point x="103" y="46"/>
      <point x="158" y="-5"/>
    </contour>
  </outline>
</glyph>
<glyph name="quoteleft" format="2">
  <advance width="212"/>
  <unicode hex="2018"/>
  <outline>
    <contour>
      <point x="108" y="480" type="curve" smooth="yes"/>
      <point x="127" y="480"/>
      <point x="144" y="491"/>
      <point x="144" y="514" type="curve" smooth="yes"/>
      <point x="144" y="555"/>
      <point x="85" y="554"/>
      <point x="85" y="588" type="curve" smooth="yes"/>
      <point x="85" y="619"/>
      <point x="113" y="677"/>
      <point x="172" y="694" type="curve"/>
      <point x="172" y="714" type="line"/>
      <point x="90" y="689"/>
      <point x="55" y="620"/>
      <point x="55" y="553" type="curve" smooth="yes"/>
      <point x="55" y="501"/>
      <point x="81" y="480"/>
    </contour>
  </outline>
</glyph>
<glyph name="quoteright" format="2">
  <advance width="212"/>
  <unicode hex="2019"/>
  <outline>
    <contour>
      <point x="40" y="480" type="line"/>
      <point x="122" y="505"/>
      <point x="157" y="574"/>
      <point x="157" y="641" type="curve" smooth="yes"/>
      <point x="157" y="693"/>
      <point x="131" y="714"/>
      <point x="104" y="714" type="curve" smooth="yes"/>
      <point x="85" y="714"/>
      <point x="68" y="703"/>
      <point x="68" y="680" type="curve" smooth="yes"/>
      <point x="68" y="639"/>
      <point x="127" y="640"/>
      <point x="127" y="606" type="curve" smooth="yes"/>
      <point x="127" y="575"/>
      <point x="99" y="517"/>
      <point x="40" y="500" type="curve"/>
    </contour>
  </outline>
</glyph>
<glyph name="quotedblright" format="2">
  <advance width="367"/>
  <unicode hex="201D"/>
  <outline>
    <contour>
      <point x="195" y="480" type="line"/>
      <point x="277" y="505"/>
      <point x="312" y="574"/>
      <point x="312" y="641" type="curve" smooth="yes"/>
      <point x="312" y="693"/>
      <point x="286" y="714"/>
      <point x="259" y="714" type="curve" smooth="yes"/>
      <point x="240" y="714"/>
      <point x="223" y="703"/>
      <point x="223" y="680" type="curve" smooth="yes"/>
      <point x="223" y="639"/>
      <point x="282" y="640"/>
      <point x="282" y="606" type="curve" smooth="yes"/>
      <point x="282" y="575"/>
      <point x="254" y="517"/>
      <point x="195" y="500" type="curve"/>
    </contour>
    <contour>
      <point x="40" y="480" type="line"/>
      <point x="122" y="505"/>
      <point x="157" y="574"/>
      <point x="157" y="641" type="curve" smooth="yes"/>
      <point x="157" y="693"/>
      <point x="131" y="714"/>
      <point x="104" y="714" type="curve" smooth="yes"/>
      <point x="85" y="714"/>
      <point x="68" y="703"/>
      <point x="68" y="680" type="curve" smooth="yes"/>
      <point x="68" y="639"/>
      <point x="127" y="640"/>
      <point x="127" y="606" type="curve" smooth="yes"/>
      <point x="127" y="575"/>
      <point x="99" y="517"/>
      <point x="40" y="500" type="curve"/>
    </contour>
  </outline>
</glyph>
<glyph name="rupeeIndian" format="2">
  <advance width="559"/>
  <unicode hex="20B9"/>
  <outline>
    <contour>
      <point x="392" y="0" type="curve" smooth="yes"/>
      <point x="414" y="0" type="line"/>
      <point x="414" y="28" type="line"/>
      <point x="391" y="28" type="line" smooth="yes"/>
      <point x="339" y="28"/>
      <point x="309" y="57"/>
      <point x="275" y="108" type="curve" smooth="yes"/>
      <point x="130" y="326" type="line"/>
      <point x="327" y="326"/>
      <point x="391" y="412"/>
      <point x="396" y="511" type="curve"/>
      <point x="490" y="511" type="line"/>
      <point x="490" y="536" type="line"/>
      <point x="395" y="536" type="line"/>
      <point x="393" y="597"/>
      <point x="357" y="672"/>
      <point x="296" y="689" type="curve"/>
      <point x="490" y="689" type="line"/>
      <point x="490" y="714" type="line"/>
      <point x="79" y="714" type="line"/>
      <point x="79" y="689" type="line"/>
      <point x="179" y="689" type="line" smooth="yes"/>
      <point x="335" y="689"/>
      <point x="361" y="596"/>
      <point x="367" y="536" type="curve"/>
      <point x="79" y="536" type="line"/>
      <point x="79" y="511" type="line"/>
      <point x="368" y="511" type="line"/>
      <point x="366" y="423"/>
      <point x="299" y="351"/>
      <point x="141" y="351" type="curve" smooth="yes"/>
      <point x="85" y="351" type="line"/>
      <point x="85" y="346" type="line"/>
      <point x="248" y="96" type="line" smooth="yes"/>
      <point x="283" y="42"/>
      <point x="325" y="0"/>
    </contour>
  </outline>
</glyph>
<glyph name="ngii-tamil" format="2">
  <advance width="1038"/>
  <note>
g103
</note>
  <anchor x="522" y="0" name="bottom"/>
  <anchor x="522" y="0" name="nukta"/>
  <anchor x="893" y="872" name="top"/>
  <anchor x="510" y="542" name="vedic"/>
  <anchor x="580" y="542" name="imatra"/>
  <outline>
    <contour>
      <point x="865" y="521" type="curve" smooth="yes"/>
      <point x="885" y="521" type="line"/>
      <point x="885" y="542" type="line"/>
      <point x="865" y="542" type="line" smooth="yes"/>
      <point x="771" y="542"/>
      <point x="716" y="599"/>
      <point x="716" y="688" type="curve" smooth="yes"/>
      <point x="716" y="781"/>
      <point x="779" y="850"/>
      <point x="891" y="850" type="curve" smooth="yes"/>
      <point x="980" y="850"/>
      <point x="1045" y="809"/>
      <point x="1045" y="736" type="curve" smooth="yes"/>
      <point x="1045" y="685"/>
      <point x="1009" y="645"/>
      <point x="946" y="645" type="curve" smooth="yes"/>
      <point x="847" y="645"/>
      <point x="822" y="761"/>
      <point x="873" y="855" type="curve"/>
      <point x="853" y="859" type="line"/>
      <point x="788" y="752"/>
      <point x="825" y="622"/>
      <point x="949" y="622" type="curve" smooth="yes"/>
      <point x="1023" y="622"/>
      <point x="1074" y="667"/>
      <point x="1074" y="734" type="curve" smooth="yes"/>
      <point x="1074" y="820"/>
      <point x="1000" y="872"/>
      <point x="893" y="872" type="curve" smooth="yes"/>
      <point x="763" y="872"/>
      <point x="686" y="790"/>
      <point x="686" y="688" type="curve" smooth="yes"/>
      <point x="686" y="586"/>
      <point x="755" y="521"/>
    </contour>
    <component base="nga-tamil"/>
  </outline>
</glyph>
<glyph name="vii-tamil" format="2">
  <advance width="1146"/>
  <note>
g142
</note>
  <anchor x="573" y="0" name="bottom"/>
  <anchor x="573" y="0" name="nukta"/>
  <anchor x="931" y="872" name="top"/>
  <anchor x="576" y="542" name="vedic"/>
  <anchor x="999" y="542" name="imatra"/>
  <outline>
    <contour>
      <point x="916" y="521" type="curve" smooth="yes"/>
      <point x="1004" y="521" type="line"/>
      <point x="1004" y="542" type="line"/>
      <point x="916" y="542" type="line" smooth="yes"/>
      <point x="817" y="542"/>
      <point x="750" y="599"/>
      <point x="750" y="688" type="curve" smooth="yes"/>
      <point x="750" y="781"/>
      <point x="815" y="850"/>
      <point x="929" y="850" type="curve" smooth="yes"/>
      <point x="1020" y="850"/>
      <point x="1083" y="809"/>
      <point x="1083" y="736" type="curve" smooth="yes"/>
      <point x="1083" y="685"/>
      <point x="1048" y="645"/>
      <point x="985" y="645" type="curve" smooth="yes"/>
      <point x="885" y="645"/>
      <point x="861" y="761"/>
      <point x="912" y="855" type="curve"/>
      <point x="891" y="859" type="line"/>
      <point x="826" y="752"/>
      <point x="864" y="622"/>
      <point x="987" y="622" type="curve" smooth="yes"/>
      <point x="1062" y="622"/>
      <point x="1112" y="667"/>
      <point x="1112" y="734" type="curve" smooth="yes"/>
      <point x="1112" y="820"/>
      <point x="1039" y="872"/>
      <point x="931" y="872" type="curve" smooth="yes"/>
      <point x="799" y="872"/>
      <point x="721" y="790"/>
      <point x="721" y="688" type="curve" smooth="yes"/>
      <point x="721" y="586"/>
      <point x="802" y="521"/>
    </contour>
    <component base="va-tamil"/>
  </outline>
</glyph>
<glyph name="yii-tamil" format="2">
  <advance width="938"/>
  <note>
g127
</note>
  <anchor x="465" y="0" name="bottom"/>
  <anchor x="465" y="0" name="nukta"/>
  <anchor x="794" y="872" name="top"/>
  <anchor x="472" y="542" name="vedic"/>
  <anchor x="802" y="542" name="imatra"/>
  <outline>
    <contour>
      <point x="766" y="521" type="curve" smooth="yes"/>
      <point x="795" y="521" type="line"/>
      <point x="795" y="542" type="line"/>
      <point x="766" y="542" type="line" smooth="yes"/>
      <point x="670" y="542"/>
      <point x="614" y="599"/>
      <point x="614" y="688" type="curve" smooth="yes"/>
      <point x="614" y="781"/>
      <point x="679" y="850"/>
      <point x="792" y="850" type="curve" smooth="yes"/>
      <point x="883" y="850"/>
      <point x="947" y="809"/>
      <point x="947" y="736" type="curve" smooth="yes"/>
      <point x="947" y="685"/>
      <point x="911" y="645"/>
      <point x="848" y="645" type="curve" smooth="yes"/>
      <point x="749" y="645"/>
      <point x="724" y="761"/>
      <point x="775" y="855" type="curve"/>
      <point x="754" y="859" type="line"/>
      <point x="689" y="752"/>
      <point x="727" y="622"/>
      <point x="851" y="622" type="curve" smooth="yes"/>
      <point x="925" y="622"/>
      <point x="976" y="667"/>
      <point x="976" y="734" type="curve" smooth="yes"/>
      <point x="976" y="820"/>
      <point x="902" y="872"/>
      <point x="794" y="872" type="curve" smooth="yes"/>
      <point x="663" y="872"/>
      <point x="584" y="790"/>
      <point x="584" y="688" type="curve" smooth="yes"/>
      <point x="584" y="586"/>
      <point x="655" y="521"/>
    </contour>
    <component base="ya-tamil"/>
  </outline>
</glyph>
